<svg width="83" height="15" viewBox="0 0 83 15" fill="none" xmlns="http://www.w3.org/2000/svg">
<path d="M8.82673 11.768H4.11073L3.35473 14H0.132727L4.70473 1.364H8.26873L12.8407 14H9.58273L8.82673 11.768ZM8.03473 9.392L6.46873 4.766L4.92073 9.392H8.03473ZM17.4902 0.68V14H14.4122V0.68H17.4902ZM25.4988 11.39V14H23.9328C22.8168 14 21.9468 13.73 21.3228 13.19C20.6988 12.638 20.3868 11.744 20.3868 10.508V6.512H19.1628V3.956H20.3868V1.508H23.4648V3.956H25.4808V6.512H23.4648V10.544C23.4648 10.844 23.5368 11.06 23.6808 11.192C23.8248 11.324 24.0648 11.39 24.4008 11.39H25.4988ZM26.7813 8.96C26.7813 7.928 26.9733 7.022 27.3573 6.242C27.7533 5.462 28.2873 4.862 28.9593 4.442C29.6313 4.022 30.3813 3.812 31.2093 3.812C31.9173 3.812 32.5353 3.956 33.0633 4.244C33.6033 4.532 34.0173 4.91 34.3053 5.378V3.956H37.3833V14H34.3053V12.578C34.0053 13.046 33.5853 13.424 33.0453 13.712C32.5173 14 31.8993 14.144 31.1913 14.144C30.3753 14.144 29.6313 13.934 28.9593 13.514C28.2873 13.082 27.7533 12.476 27.3573 11.696C26.9733 10.904 26.7813 9.992 26.7813 8.96ZM34.3053 8.978C34.3053 8.21 34.0893 7.604 33.6573 7.16C33.2373 6.716 32.7213 6.494 32.1093 6.494C31.4973 6.494 30.9753 6.716 30.5433 7.16C30.1233 7.592 29.9133 8.192 29.9133 8.96C29.9133 9.728 30.1233 10.34 30.5433 10.796C30.9753 11.24 31.4973 11.462 32.1093 11.462C32.7213 11.462 33.2373 11.24 33.6573 10.796C34.0893 10.352 34.3053 9.746 34.3053 8.978ZM48.8801 1.364V3.83H45.5321V14H42.4541V3.83H39.1061V1.364H48.8801ZM60.0729 8.816C60.0729 9.104 60.0549 9.404 60.0189 9.716H53.0529C53.1009 10.34 53.2989 10.82 53.6469 11.156C54.0069 11.48 54.4449 11.642 54.9609 11.642C55.7289 11.642 56.2629 11.318 56.5629 10.67H59.8389C59.6709 11.33 59.3649 11.924 58.9209 12.452C58.4889 12.98 57.9429 13.394 57.2829 13.694C56.6229 13.994 55.8849 14.144 55.0689 14.144C54.0849 14.144 53.2089 13.934 52.4409 13.514C51.6729 13.094 51.0729 12.494 50.6409 11.714C50.2089 10.934 49.9929 10.022 49.9929 8.978C49.9929 7.934 50.2029 7.022 50.6229 6.242C51.0549 5.462 51.6549 4.862 52.4229 4.442C53.1909 4.022 54.0729 3.812 55.0689 3.812C56.0409 3.812 56.9049 4.016 57.6609 4.424C58.4169 4.832 59.0049 5.414 59.4249 6.17C59.8569 6.926 60.0729 7.808 60.0729 8.816ZM56.9229 8.006C56.9229 7.478 56.7429 7.058 56.3829 6.746C56.0229 6.434 55.5729 6.278 55.0329 6.278C54.5169 6.278 54.0789 6.428 53.7189 6.728C53.3709 7.028 53.1549 7.454 53.0709 8.006H56.9229ZM61.2647 8.978C61.2647 7.934 61.4747 7.022 61.8947 6.242C62.3267 5.462 62.9207 4.862 63.6767 4.442C64.4447 4.022 65.3207 3.812 66.3047 3.812C67.5647 3.812 68.6147 4.142 69.4547 4.802C70.3067 5.462 70.8647 6.392 71.1287 7.592H67.8527C67.5767 6.824 67.0427 6.44 66.2507 6.44C65.6867 6.44 65.2367 6.662 64.9007 7.106C64.5647 7.538 64.3967 8.162 64.3967 8.978C64.3967 9.794 64.5647 10.424 64.9007 10.868C65.2367 11.3 65.6867 11.516 66.2507 11.516C67.0427 11.516 67.5767 11.132 67.8527 10.364H71.1287C70.8647 11.54 70.3067 12.464 69.4547 13.136C68.6027 13.808 67.5527 14.144 66.3047 14.144C65.3207 14.144 64.4447 13.934 63.6767 13.514C62.9207 13.094 62.3267 12.494 61.8947 11.714C61.4747 10.934 61.2647 10.022 61.2647 8.978ZM79.1291 3.848C80.2811 3.848 81.2051 4.232 81.9011 5C82.5971 5.756 82.9451 6.8 82.9451 8.132V14H79.8851V8.546C79.8851 7.874 79.7111 7.352 79.3631 6.98C79.0151 6.608 78.5471 6.422 77.9591 6.422C77.3711 6.422 76.9031 6.608 76.5551 6.98C76.2071 7.352 76.0331 7.874 76.0331 8.546V14H72.9551V0.68H76.0331V5.306C76.3451 4.862 76.7711 4.508 77.3111 4.244C77.8511 3.98 78.4571 3.848 79.1291 3.848Z" fill="#ECEDEF"/>
</svg>
